<svg width="54" height="54" viewBox="0 0 54 54" fill="none" xmlns="http://www.w3.org/2000/svg">
<rect x="0.5" y="0.5" width="53" height="53" rx="26.5" fill="white"/>
<rect x="0.5" y="0.5" width="53" height="53" rx="26.5" stroke="#FFF4E4"/>
<path d="M14.8147 29.6717C14.5392 29.8013 14.4177 30.1277 14.5404 30.4067L15.7988 33.116C15.8606 33.2509 15.9734 33.3559 16.1121 33.4078C16.1728 33.4299 16.2373 33.4413 16.3021 33.4413C16.3832 33.442 16.4632 33.4246 16.5369 33.3911L26.0441 28.9371L25.183 37.9678C25.1663 38.1456 25.2346 38.3204 25.3672 38.4391C25.784 38.7852 26.3035 38.9823 26.8439 39C26.993 38.9998 27.1411 38.981 27.2856 38.9441C28.0574 38.7421 28.6558 38.0523 29.0641 36.8742L32.8054 25.7624L40.2152 22.2957C42.3962 21.2749 43.5202 19.2052 42.7654 17.5896C42.3371 16.7452 41.5166 16.1708 40.5787 16.0583C39.5367 15.9005 38.4717 16.0649 37.5253 16.5297L28.9744 20.5514L19.7807 16.9446C18.6229 16.5072 17.7059 16.5185 17.0629 16.9841C16.5233 17.4282 16.2163 18.0957 16.2294 18.7957C16.235 18.9733 16.3242 19.1375 16.4699 19.2391L22.6606 23.5075L19.1152 25.1903L13.1702 23.6756C12.9266 23.6156 12.673 23.7257 12.5496 23.9449L11.0678 26.6204C10.9909 26.7621 10.9788 26.9304 11.0347 27.0818C11.0902 27.2334 11.2082 27.3534 11.3587 27.4113L15.7599 29.2345L14.8147 29.6717ZM17.3756 18.5153C17.4086 18.2782 17.5282 18.0623 17.7114 17.9095C18.0303 17.6794 18.6119 17.7131 19.3891 18.0047L27.5765 21.2077L23.8406 22.9577L17.3756 18.5153ZM12.3427 26.6149L13.3158 24.8817L19.0368 26.3063C19.16 26.3376 19.2902 26.3258 19.4061 26.2729L38.0008 17.5617C38.74 17.196 39.5726 17.0628 40.3887 17.1802C40.961 17.233 41.4709 17.5643 41.7533 18.0664C42.2227 19.0762 41.3001 20.5514 39.7397 21.2805L33.2973 24.3098L33.6889 23.1483C33.7879 22.8495 33.6262 22.5267 33.3283 22.4276C33.0301 22.3285 32.7084 22.4907 32.6096 22.7894L28.007 36.5262C27.7329 37.3061 27.3917 37.7718 27.0115 37.8725C26.776 37.9179 26.5322 37.8716 26.3292 37.7437L27.4478 25.9641C27.477 25.6544 27.2506 25.3795 26.9415 25.3502C26.6327 25.3205 26.3586 25.548 26.3292 25.8577L26.156 27.6581L16.5592 32.1455L15.7711 30.4627L17.3478 29.7225C17.5508 29.6327 17.6816 29.4314 17.6816 29.2092C17.6816 28.9868 17.5508 28.7855 17.3478 28.6959L12.3427 26.6149Z" fill="#FF9800" stroke="#FF9800" stroke-width="0.8"/>
</svg>
